<svg width="360" height="60" viewBox="0 0 360 60" fill="none" xmlns="http://www.w3.org/2000/svg">
<g clip-path="url(#clip0_5_38)">
<path d="M30 60C46.5685 60 60 46.5685 60 30C60 13.4315 46.5685 0 30 0C13.4315 0 0 13.4315 0 30C0 46.5685 13.4315 60 30 60Z" fill="#F7F26D" fill-opacity="0.2"/>
<path d="M46.1152 14.0859C45.613 13.3553 44.8642 12.7662 43.9635 12.3931C43.0627 12.02 42.0505 11.8796 41.0548 11.9897C40.059 12.0998 39.1245 12.4555 38.3694 13.0117C37.6143 13.5679 37.0725 14.2997 36.8125 15.1146L33.9062 24.2283L31 15.1162C30.6514 14.0234 29.8002 13.0917 28.6338 12.5261C27.4674 11.9604 26.0812 11.8071 24.7803 12.1C23.4793 12.3928 22.3701 13.1078 21.6967 14.0876C21.0233 15.0673 20.8408 16.2317 21.1895 17.3245L23.1836 23.572L20.8613 23.1963C19.7424 23.0035 18.5787 23.1331 17.5583 23.5644C16.538 23.9956 15.7204 24.7032 15.2379 25.5729C14.7554 26.4425 14.6359 27.4235 14.899 28.3572C15.162 29.2909 15.7921 30.1228 16.6875 30.7186C15.75 31.34 15.1056 32.2209 14.8691 33.2041C14.7999 33.4914 14.7652 33.7838 14.7656 34.077V35.25C14.7656 38.6439 16.3707 41.8989 19.2277 44.2988C22.0847 46.6986 25.9596 48.0469 30 48.0469H30.1172C38.4531 47.9944 45.2344 42.1882 45.2344 35.1023V34.5544C45.2312 32.5342 44.404 30.5759 42.8906 29.0058L46.6152 17.3245C46.791 16.7838 46.8374 16.2191 46.7515 15.6632C46.6657 15.1072 46.4494 14.5711 46.1152 14.0859ZM23.7266 15.0703C23.997 14.6768 24.4002 14.3594 24.8854 14.1584C25.3705 13.9574 25.9158 13.8819 26.4521 13.9412C26.9884 14.0006 27.4917 14.1922 27.8983 14.4919C28.3049 14.7916 28.5965 15.1859 28.7363 15.6248L31.7578 25.0781C30.5385 25.0407 29.3439 25.3732 28.3926 26.0149C28.3184 25.9001 28.2383 25.7869 28.1504 25.6753C27.5767 24.942 26.7452 24.3771 25.7715 24.0593L23.4531 16.8143C23.3594 16.5228 23.3353 16.2187 23.3823 15.9193C23.4292 15.62 23.5462 15.3315 23.7266 15.0703ZM17.166 26.9156C17.2381 26.6193 17.3792 26.3378 17.5812 26.0874C17.7831 25.837 18.042 25.6225 18.3429 25.4564C18.6438 25.2902 18.9808 25.1756 19.3345 25.1192C19.6883 25.0627 20.0518 25.0655 20.4043 25.1273L24.4551 25.7836C24.8184 25.8336 25.1659 25.9447 25.4769 26.1103C25.7878 26.2759 26.0558 26.4925 26.2646 26.7472C26.4735 27.0019 26.619 27.2893 26.6924 27.5924C26.7658 27.8954 26.7656 28.2078 26.6917 28.5108C26.6179 28.8138 26.472 29.1011 26.2628 29.3556C26.0536 29.61 25.7853 29.8264 25.4741 29.9916C25.1629 30.1569 24.8152 30.2677 24.4518 30.3173C24.0884 30.367 23.7169 30.3545 23.3594 30.2805L21.0156 29.9016L20.875 29.8786L20.7969 29.8671L19.3066 29.6259C18.5974 29.5031 17.9751 29.1489 17.5763 28.6411C17.1776 28.1333 17.0349 27.5133 17.1797 26.9173L17.166 26.9156ZM17.166 33.5962C17.3112 33.0044 17.7282 32.4844 18.3267 32.149C18.9252 31.8137 19.6569 31.6899 20.3633 31.8047L20.5586 31.8375L22.3437 32.1328C22.7025 32.1872 23.0447 32.3014 23.3502 32.4685C23.6557 32.6356 23.9183 32.8524 24.1226 33.1061C24.3269 33.3597 24.4688 33.6451 24.5398 33.9455C24.6109 34.2458 24.6097 34.5551 24.5364 34.8551C24.463 35.1551 24.319 35.4397 24.1128 35.6923C23.9066 35.9448 23.6424 36.1602 23.3356 36.3257C23.0289 36.4912 22.6858 36.6035 22.3266 36.656C21.9675 36.7085 21.5994 36.7001 21.2441 36.6314L19.291 36.3033C18.5814 36.1808 17.9586 35.8268 17.5595 35.3189C17.1603 34.811 17.0174 34.1909 17.1621 33.5946L17.166 33.5962ZM42.8906 35.1023C42.8906 41.1103 37.1504 46.0338 30.0977 46.0781C27.197 46.0953 24.374 45.291 22.0844 43.7949C19.7948 42.2988 18.1722 40.1983 17.4785 37.8323C17.9037 38.0206 18.3589 38.1565 18.8301 38.2359L20.7832 38.5641C21.1208 38.6213 21.4642 38.6504 21.8086 38.651C22.7253 38.6496 23.6245 38.4398 24.4107 38.0438C25.1969 37.6478 25.8408 37.0804 26.2742 36.4018C26.7075 35.7233 26.9141 34.9588 26.872 34.1896C26.8299 33.4204 26.5408 32.6751 26.0352 32.0327L25.9531 31.9343C26.3596 31.7839 26.741 31.5898 27.0879 31.3568C27.1621 31.4727 27.2422 31.5859 27.3281 31.6964C27.6951 32.1654 28.1693 32.5686 28.7232 32.8827C29.277 33.1967 29.8996 33.4152 30.5547 33.5257L32.1836 33.798C32.0318 34.2715 31.9543 34.7596 31.9531 35.25C31.9495 36.7104 32.6308 38.1132 33.8496 39.1547C34.0672 39.3411 34.364 39.4474 34.6748 39.45C34.9856 39.4526 35.2849 39.3514 35.5068 39.1686C35.7288 38.9859 35.8552 38.7366 35.8584 38.4755C35.8615 38.2144 35.741 37.963 35.5234 37.7766C34.881 37.2259 34.4654 36.5169 34.3375 35.7534C34.2095 34.99 34.376 34.2121 34.8125 33.5339C34.9002 33.3984 34.9488 33.2474 34.9543 33.0932C34.9597 32.939 34.922 32.7858 34.8441 32.6461C34.7661 32.5064 34.6502 32.384 34.5056 32.2889C34.361 32.1938 34.1919 32.1285 34.0117 32.0984L31.0156 31.5947C30.6568 31.5403 30.3147 31.4261 30.0092 31.259C29.7037 31.0919 29.4411 30.8751 29.2368 30.6214C29.0325 30.3678 28.8906 30.0824 28.8196 29.782C28.7485 29.4817 28.7497 29.1724 28.823 28.8724C28.8963 28.5724 29.0403 28.2878 29.2465 28.0352C29.4527 27.7827 29.717 27.5673 30.0237 27.4018C30.3305 27.2363 30.6736 27.124 31.0327 27.0715C31.3919 27.019 31.76 27.0274 32.1152 27.0961L36.2949 27.7966C38.1529 28.1123 39.824 28.9572 41.0259 30.1886C42.2277 31.4199 42.8864 32.9621 42.8906 34.5544V35.1023ZM44.3574 16.8143L40.9668 27.4439C39.7195 26.6618 38.2803 26.1232 36.7539 25.8673L35.8574 25.7163L39.0762 15.6265C39.2954 15.0698 39.7597 14.6046 40.374 14.3262C40.9884 14.0478 41.7062 13.9774 42.3804 14.1292C43.0547 14.2811 43.6342 14.6438 44.0003 15.143C44.3664 15.6422 44.4914 16.2402 44.3496 16.8143H44.3574Z" fill="black"/>
<path d="M150 60C166.569 60 180 46.5685 180 30C180 13.4315 166.569 0 150 0C133.431 0 120 13.4315 120 30C120 46.5685 133.431 60 150 60Z" fill="#FF3344" fill-opacity="0.2"/>
<path d="M90 60C106.569 60 120 46.5685 120 30C120 13.4315 106.569 0 90 0C73.4315 0 60 13.4315 60 30C60 46.5685 73.4315 60 90 60Z" fill="#4857EC" fill-opacity="0.2"/>
<path d="M210 60C226.569 60 240 46.5685 240 30C240 13.4315 226.569 0 210 0C193.431 0 180 13.4315 180 30C180 46.5685 193.431 60 210 60Z" fill="#33A9FF" fill-opacity="0.2"/>
<path d="M270 60C286.569 60 300 46.5685 300 30C300 13.4315 286.569 0 270 0C253.431 0 240 13.4315 240 30C240 46.5685 253.431 60 270 60Z" fill="#48EC9D" fill-opacity="0.2"/>
<path d="M330 60C346.569 60 360 46.5685 360 30C360 13.4315 346.569 0 330 0C313.431 0 300 13.4315 300 30C300 46.5685 313.431 60 330 60Z" fill="#8DFF33" fill-opacity="0.2"/>
<mask id="mask0_5_38" style="mask-type:luminance" maskUnits="userSpaceOnUse" x="192" y="9" width="38" height="40">
<path d="M230 9H192V49H230V9Z" fill="white"/>
</mask>
<g mask="url(#mask0_5_38)">
<path d="M230 26.75C230 23 226.675 21.5 224.775 21.5H219.55C220.5 19 221.213 16 220.738 13.75C219.55 9.25 215.988 9 214.8 9H214.562C213.612 9 213.137 9.5 212.662 10.25L210.287 17.25L203.875 24H192V46.5H203.875V44C204.35 44 205.537 44.75 206.725 45.5C209.575 47 213.612 49.25 217.412 49.25C223.112 49.25 225.012 48.5 226.438 46C227.15 44.5 227.15 43.25 227.15 42.5C227.625 42 228.337 41.25 228.575 40C228.812 38.75 228.812 38 228.575 37.25C229.05 36.5 229.525 35.5 229.762 34C229.762 32.75 229.525 31.75 229.287 31C229.525 30 230 28.75 230 26.75ZM197.938 42.75C196.512 42.75 195.562 41.75 195.562 40.25C195.562 38.75 196.512 37.75 197.938 37.75C199.363 37.75 200.312 38.75 200.312 40.25C200.312 41.75 199.363 42.75 197.938 42.75ZM226.912 31.75C226.912 31.75 227.387 32.25 227.387 33.5C227.387 35 226.438 35.75 226.438 35.75L225.725 36.5L226.2 37.25C226.2 37.25 226.675 38 226.2 39C225.962 40 225.012 40.75 225.012 40.75L224.3 41.5L224.775 42.5C224.775 42.5 225.25 43.5 224.537 44.75C224.062 45.75 223.588 46.5 217.65 46.5C214.325 46.5 210.525 44.5 207.912 43C206.012 42 204.825 41.5 203.875 41.5V26.5H204.112C204.587 26.5 205.062 26.25 205.537 26L212.188 19C212.425 18.75 212.425 18.5 212.662 18.25L215.037 11.5C216.225 11.5 217.888 12 218.363 14.25C218.6 15.75 218.125 18.25 216.938 21.25C216.7 22 216.7 22.5 217.175 23.25C217.413 23.75 218.125 24 218.838 24H224.775C225.013 24 227.625 24.5 227.625 26.75C227.625 28.75 226.912 29.75 226.912 29.75L226.2 30.75L226.912 31.75Z" fill="black"/>
</g>
<path d="M111.742 26.6745L107.287 14.8021C107.144 14.4196 106.945 14.0785 106.703 13.7982C106.461 13.5179 106.179 13.3039 105.875 13.1685C105.57 13.0331 105.248 12.9789 104.928 13.009C104.608 13.0391 104.295 13.1529 104.008 13.344L99.5448 16.3161L90.2672 13.0463C90.092 12.9858 89.9081 12.9858 89.7328 13.0463L80.4552 16.3161L75.9936 13.344C75.7063 13.1526 75.3935 13.0385 75.0731 13.0082C74.7527 12.9779 74.4309 13.032 74.1262 13.1674C73.8214 13.3028 73.5397 13.5169 73.2972 13.7974C73.0546 14.0779 72.8559 14.4193 72.7125 14.8021L68.2579 26.6745C67.9681 27.4467 67.9205 28.3407 68.1255 29.1597C68.3304 29.9787 68.7713 30.6558 69.3511 31.042L74.092 34.2002L83.8027 43.4376C83.9079 43.5386 84.0264 43.6128 84.1519 43.6562L95.3277 47.3772C95.4128 47.4054 95.5002 47.4195 95.5879 47.4191C95.8657 47.4187 96.132 47.2715 96.3283 47.0098L105.987 34.1467L110.649 31.042C111.229 30.6558 111.67 29.9787 111.875 29.1597C112.08 28.3407 112.032 27.4467 111.742 26.6745ZM102.487 34.8514L96.2357 28.1815C96.0341 27.9666 95.78 27.8584 95.5222 27.8777C95.2644 27.897 95.021 28.0425 94.8388 28.2861C91.5821 32.656 87.9412 32.1048 85.6205 30.128C85.5749 30.0906 85.5363 30.0396 85.5079 29.9791C85.4794 29.9186 85.4618 29.8502 85.4564 29.7792C85.4502 29.7141 85.4549 29.6479 85.4704 29.5856C85.4858 29.5232 85.5114 29.4662 85.5454 29.4187L93.2183 19.5115H99.1309L104.092 32.7258L102.487 34.8514ZM70.1124 28.2768C70.0835 28.1602 70.0904 28.0332 70.1316 27.9233L74.5879 16.0487C74.6172 15.9713 74.6622 15.9063 74.7177 15.8611C74.7733 15.8159 74.8372 15.7923 74.9023 15.7929C74.9562 15.7929 75.0094 15.8096 75.0577 15.8417L78.936 18.4231L74.1654 31.1397L70.287 28.5582C70.2452 28.5294 70.2081 28.4897 70.1781 28.4413C70.1481 28.3929 70.1258 28.337 70.1124 28.2768ZM95.2666 44.4795L84.8592 41.0143L75.9709 32.5583L81.0664 18.9883L90 15.8394L92.5844 16.751C92.3868 16.8022 92.2047 16.9291 92.0605 17.1161L84.0803 27.4303C83.8212 27.7752 83.6236 28.1932 83.5021 28.6534C83.3807 29.1137 83.3384 29.6044 83.3784 30.0894C83.4185 30.5743 83.5399 31.0411 83.7336 31.4551C83.9274 31.8692 84.1885 32.22 84.4977 32.4816C88.0285 35.4863 92.312 34.9211 95.6385 31.1118L101.001 36.8375L95.2666 44.4795ZM109.888 28.2768C109.873 28.3349 109.85 28.3886 109.82 28.4349C109.79 28.4811 109.754 28.5191 109.713 28.5466L105.835 31.1397L101.064 18.4231L104.942 15.8417C104.983 15.8142 105.028 15.7978 105.074 15.7934C105.12 15.789 105.166 15.7968 105.21 15.8161C105.253 15.8353 105.293 15.8656 105.328 15.9055C105.363 15.9455 105.391 15.9941 105.412 16.0487L109.868 27.9233C109.91 28.0332 109.916 28.1602 109.888 28.2768ZM90.33 51.9424C90.2628 52.3013 90.0913 52.61 89.8533 52.8006C89.6152 52.9911 89.3301 53.048 89.0605 52.9587L81.7736 50.5331C81.6479 50.4903 81.5294 50.4161 81.4244 50.3145L76.8196 45.94C76.5934 45.7241 76.4408 45.3974 76.3954 45.0317C76.3501 44.666 76.4157 44.2912 76.5777 43.9899C76.7398 43.6886 76.9852 43.4854 77.2598 43.425C77.5343 43.3646 77.8157 43.452 78.0419 43.6678L82.4756 47.8842L89.5669 50.2447C89.7008 50.2893 89.8267 50.3686 89.9375 50.4781C90.0482 50.5876 90.1417 50.7252 90.2124 50.883C90.2831 51.0407 90.3298 51.2155 90.3497 51.3973C90.3696 51.5791 90.3623 51.7644 90.3283 51.9424H90.33Z" fill="black"/>
<mask id="mask1_5_38" style="mask-type:luminance" maskUnits="userSpaceOnUse" x="130" y="9" width="41" height="42">
<path d="M171 9H130V51H171V9Z" fill="white"/>
</mask>
<g mask="url(#mask1_5_38)">
<path d="M150.5 12.5C159.935 12.5 167.583 20.3348 167.583 30C167.583 39.6653 159.935 47.5 150.5 47.5C141.065 47.5 133.417 39.6653 133.417 30C133.417 20.3348 141.065 12.5 150.5 12.5ZM150.5 16C146.875 16 143.399 17.475 140.836 20.1005C138.273 22.726 136.833 26.287 136.833 30C136.833 33.713 138.273 37.274 140.836 39.8995C143.399 42.525 146.875 44 150.5 44C154.125 44 157.601 42.525 160.164 39.8995C162.727 37.274 164.167 33.713 164.167 30C164.167 26.287 162.727 22.726 160.164 20.1005C157.601 17.475 154.125 16 150.5 16ZM155.91 30C157.639 30 159.042 31.435 159.042 33.2078V33.5C159.042 35.8206 158.142 38.0462 156.54 39.6872C154.938 41.3281 152.765 42.25 150.5 42.25C148.235 42.25 146.062 41.3281 144.46 39.6872C142.858 38.0462 141.958 35.8206 141.958 33.5V33.2078C141.958 31.4368 143.359 30 145.09 30H155.91ZM155.625 33.5H145.375C145.375 34.8924 145.915 36.2277 146.876 37.2123C147.837 38.1969 149.141 38.75 150.5 38.75C151.859 38.75 153.163 38.1969 154.124 37.2123C155.085 36.2277 155.625 34.8924 155.625 33.5ZM145.375 21.25C145.793 21.2501 146.197 21.4074 146.51 21.6923C146.823 21.9771 147.022 22.3696 147.071 22.7953L147.083 23V26.5C147.083 26.946 146.916 27.3751 146.617 27.6994C146.318 28.0237 145.91 28.2189 145.475 28.2451C145.04 28.2712 144.612 28.1263 144.279 27.84C143.945 27.5538 143.73 27.1477 143.679 26.7048L143.667 26.5V23C143.667 22.5359 143.847 22.0908 144.167 21.7626C144.487 21.4344 144.922 21.25 145.375 21.25ZM154.417 21.7628C154.725 21.4489 155.137 21.2667 155.571 21.2531C156.005 21.2395 156.427 21.3956 156.753 21.6897C157.079 21.9837 157.283 22.3937 157.324 22.8363C157.365 23.2789 157.24 23.721 156.975 24.0728L156.833 24.2373L156.332 24.75L156.833 25.2628C157.139 25.5777 157.317 26.0003 157.33 26.4447C157.344 26.8891 157.191 27.322 156.904 27.6555C156.617 27.989 156.217 28.198 155.785 28.2402C155.353 28.2824 154.921 28.1545 154.578 27.8825L154.417 27.7373L152.709 25.9873C152.415 25.6859 152.238 25.285 152.212 24.8597C152.186 24.4344 152.312 24.014 152.567 23.6773L152.709 23.5128L154.417 21.7628Z" fill="black"/>
</g>
<path d="M288.521 31.75C286.323 30.868 282.25 27.375 275.083 32.625C273.199 31.596 269.708 29.125 264.333 33.5C263.705 31.001 263.58 25.3135 264.333 20.375C264.647 19.64 265.94 19.1194 269.708 23L274.187 18.625C273.874 16.714 271.5 14.25 264.333 14.25C261.646 14.25 259.193 16.4944 258.062 20.375C256.65 24.3431 254.479 33.5 254.479 38.75C254.479 40.367 256.719 44 265.229 44C267.021 44 272.261 44.1969 278.667 41.375L284.042 45.75" stroke="black" stroke-width="4" stroke-linecap="round" stroke-linejoin="round"/>
<path d="M325.165 10C324.908 10 324.662 10.0822 324.481 10.2285C324.3 10.3747 324.198 10.5731 324.198 10.78V12.34C324.198 12.5469 324.3 12.7453 324.481 12.8915C324.662 13.0378 324.908 13.12 325.165 13.12H326.615V15.185C316.154 16.1561 308 23.3415 308 32.035C308 41.3884 317.437 49 329.033 49C340.629 49 350.066 41.3884 350.066 32.035C350.069 28.8336 348.942 25.6976 346.816 22.994L348.866 21.6559L349.778 22.5654C349.858 22.6451 349.957 22.7112 350.068 22.7602C350.18 22.8091 350.302 22.8398 350.429 22.8506C350.555 22.8613 350.683 22.8519 350.804 22.8228C350.926 22.7938 351.04 22.7457 351.139 22.6812L352.642 21.6992C352.841 21.5689 352.968 21.3803 352.995 21.1746C353.021 20.969 352.946 20.7632 352.784 20.6025L347.916 15.7525C347.837 15.6729 347.738 15.6067 347.626 15.5578C347.515 15.5088 347.392 15.4781 347.266 15.4674C347.14 15.4566 347.012 15.466 346.89 15.4951C346.768 15.5241 346.655 15.5722 346.556 15.6367L345.053 16.6187C344.853 16.749 344.727 16.9377 344.7 17.1433C344.673 17.3489 344.749 17.5547 344.91 17.7154L345.824 18.6248L343.783 19.9563C340.526 17.3675 336.229 15.6296 331.45 15.1858V13.12H332.901C333.157 13.12 333.403 13.0378 333.585 12.8915C333.766 12.7453 333.868 12.5469 333.868 12.34V10.78C333.868 10.5731 333.766 10.3747 333.585 10.2285C333.403 10.0822 333.157 10 332.901 10H325.165ZM329.033 17.8C338.8 17.8 346.681 24.157 346.681 32.035C346.681 39.913 338.8 46.27 329.033 46.27C319.266 46.27 311.385 39.913 311.385 32.035C311.385 24.157 319.266 17.8 329.033 17.8ZM329.034 20.7028L329.033 32.035L340.267 38.8393C341.834 37.1561 342.789 35.1541 343.024 33.0577C343.26 30.9613 342.767 28.8535 341.6 26.9705C340.434 25.0875 338.64 23.5037 336.421 22.3968C334.201 21.2898 331.643 20.703 329.034 20.7028Z" fill="black"/>
</g>
<defs>
<clipPath id="clip0_5_38">
<rect width="360" height="60" fill="white"/>
</clipPath>
</defs>
</svg>
